{
  "accessors": [
    {
      "bufferView": 2,
      "componentType": 5126,
      "count": 53,
      "max": [
        62.8130989074707,
        -83.42379760742188,
        184.7346954345703
      ],
      "min": [
        -62.8130989074707,
        -118.20999908447266,
        146.65809631347656
      ],
      "type": "VEC3"
    },
    {
      "bufferView": 2,
      "byteOffset": 636,
      "componentType": 5126,
      "count": 53,
      "max": [
        0.5331769585609436,
        -0.7238247394561768,
        0.47369372844696045
      ],
      "min": [
        -0.5331769585609436,
        -0.8909960389137268,
        0.4301813840866089
      ],
      "type": "VEC3"
    },
    {
      "bufferView": 1,
      "componentType": 5126,
      "count": 53,
      "max": [
        0.9932000041007996,
        0.9968000054359436
      ],
      "min": [
        0.006500000134110451,
        0.01119999960064888
      ],
      "type": "VEC2"
    },
    {
      "bufferView": 0,
      "componentType": 5125,
      "count": 174,
      "type": "SCALAR"
    },
    {
      "bufferView": 2,
      "byteOffset": 1272,
      "componentType": 5126,
      "count": 1044,
      "max": [
        71.26300048828125,
        111.59950256347656,
        59.2943000793457
      ],
      "min": [
        -71.26300048828125,
        -111.59960174560547,
        -0.3840999901294708
      ],
      "type": "VEC3"
    },
    {
      "bufferView": 2,
      "byteOffset": 13800,
      "componentType": 5126,
      "count": 1044,
      "max": [
        1.0,
        0.8766273856163025,
        0.8852044343948364
      ],
      "min": [
        -1.0,
        -0.8852044343948364,
        -0.8852044343948364
      ],
      "type": "VEC3"
    },
    {
      "bufferView": 1,
      "byteOffset": 424,
      "componentType": 5126,
      "count": 1044,
      "max": [
        1.0010000467300415,
        0.9962999820709229
      ],
      "min": [
        -0.9980000257492065,
        0.0020000000949949026
      ],
      "type": "VEC2"
    },
    {
      "bufferView": 0,
      "byteOffset": 696,
      "componentType": 5125,
      "count": 5280,
      "type": "SCALAR"
    },
    {
      "bufferView": 2,
      "byteOffset": 26328,
      "componentType": 5126,
      "count": 135,
      "max": [
        64.58989715576172,
        -103.67179870605469,
        100.27420043945313
      ],
      "min": [
        -64.58989715576172,
        -125.13680267333984,
        80.7125015258789
      ],
      "type": "VEC3"
    },
    {
      "bufferView": 2,
      "byteOffset": 27948,
      "componentType": 5126,
      "count": 135,
      "max": [
        1.0,
        -0.0,
        0.8314653038978577
      ],
      "min": [
        -1.0,
        -1.0,
        -0.8314653038978577
      ],
      "type": "VEC3"
    },
    {
      "bufferView": 1,
      "byteOffset": 8776,
      "componentType": 5126,
      "count": 135,
      "max": [
        0.9390000104904175,
        0.9370999932289124
      ],
      "min": [
        0.06400000303983688,
        0.06300000101327896
      ],
      "type": "VEC2"
    },
    {
      "bufferView": 0,
      "byteOffset": 21816,
      "componentType": 5125,
      "count": 552,
      "type": "SCALAR"
    },
    {
      "bufferView": 2,
      "byteOffset": 29568,
      "componentType": 5126,
      "count": 2441,
      "max": [
        98.44830322265625,
        144.6927947998047,
        201.99879455566406
      ],
      "min": [
        -88.83110046386719,
        -146.4248046875,
        5.929800033569336
      ],
      "type": "VEC3"
    },
    {
      "bufferView": 2,
      "byteOffset": 58860,
      "componentType": 5126,
      "count": 2441,
      "max": [
        1.0,
        0.999951958656311,
        0.9999172687530518
      ],
      "min": [
        -1.0,
        -0.9999997615814209,
        -0.9999898672103882
      ],
      "type": "VEC3"
    },
    {
      "bufferView": 1,
      "byteOffset": 9856,
      "componentType": 5126,
      "count": 2441,
      "max": [
        0.9970999956130981,
        0.9980000257492065
      ],
      "min": [
        0.0052999998442828655,
        0.002400000113993883
      ],
      "type": "VEC2"
    },
    {
      "bufferView": 0,
      "byteOffset": 24024,
      "componentType": 5125,
      "count": 9999,
      "type": "SCALAR"
    },
    {
      "bufferView": 2,
      "byteOffset": 88152,
      "componentType": 5126,
      "count": 1747,
      "max": [
        87.77839660644531,
        139.31570434570313,
        190.7769012451172
      ],
      "min": [
        -87.85980224609375,
        -144.0803985595703,
        5.404200077056885
      ],
      "type": "VEC3"
    },
    {
      "bufferView": 2,
      "byteOffset": 109116,
      "componentType": 5126,
      "count": 1747,
      "max": [
        0.9984809160232544,
        0.9999996423721313,
        0.999953031539917
      ],
      "min": [
        -0.9999788999557495,
        -1.0,
        -0.9999033212661743
      ],
      "type": "VEC3"
    },
    {
      "bufferView": 1,
      "byteOffset": 29384,
      "componentType": 5126,
      "count": 1747,
      "max": [
        0.9955999851226807,
        0.9977999925613403
      ],
      "min": [
        0.003000000026077032,
        0.002400000113993883
      ],
      "type": "VEC2"
    },
    {
      "bufferView": 0,
      "byteOffset": 64020,
      "componentType": 5125,
      "count": 7311,
      "type": "SCALAR"
    }
  ],
  "asset": {
    "extras": {
      "author": "Neut2000 (https://sketchfab.com/Neut2000)",
      "license": "CC-BY-4.0 (http://creativecommons.org/licenses/by/4.0/)",
      "source": "https://sketchfab.com/3d-models/disney-infinity-fillmore-9f3b98d11991418e9468b59588b54b2d",
      "title": "Disney Infinity Fillmore"
    },
    "generator": "Sketchfab-12.67.0",
    "version": "2.0"
  },
  "bufferViews": [
    {
      "buffer": 0,
      "byteLength": 93264,
      "name": "floatBufferViews",
      "target": 34963
    },
    {
      "buffer": 0,
      "byteLength": 43360,
      "byteOffset": 93264,
      "byteStride": 8,
      "name": "floatBufferViews",
      "target": 34962
    },
    {
      "buffer": 0,
      "byteLength": 130080,
      "byteOffset": 136624,
      "byteStride": 12,
      "name": "floatBufferViews",
      "target": 34962
    }
  ],
  "buffers": [
    {
      "byteLength": 266704,
      "uri": "scene.bin"
    }
  ],
  "images": [
    {
      "uri": "textures/Material__82_baseColor.png"
    },
    {
      "uri": "textures/Material__83_baseColor.png"
    },
    {
      "uri": "textures/Material__84_baseColor.png"
    },
    {
      "uri": "textures/Material__85_baseColor.png"
    }
  ],
  "materials": [
    {
      "doubleSided": true,
      "emissiveTexture": {
        "index": 0
      },
      "name": "Material__82",
      "pbrMetallicRoughness": {
        "baseColorTexture": {
          "index": 0
        },
        "metallicFactor": 0.0
      }
    },
    {
      "doubleSided": true,
      "emissiveTexture": {
        "index": 1
      },
      "name": "Material__83",
      "pbrMetallicRoughness": {
        "baseColorTexture": {
          "index": 1
        },
        "metallicFactor": 0.0
      }
    },
    {
      "doubleSided": true,
      "emissiveTexture": {
        "index": 2
      },
      "name": "Material__84",
      "pbrMetallicRoughness": {
        "baseColorTexture": {
          "index": 2
        },
        "metallicFactor": 0.0
      }
    },
    {
      "doubleSided": true,
      "emissiveTexture": {
        "index": 3
      },
      "name": "Material__85",
      "pbrMetallicRoughness": {
        "baseColorTexture": {
          "index": 3
        },
        "metallicFactor": 0.0
      }
    }
  ],
  "meshes": [
    {
      "name": "Object_0",
      "primitives": [
        {
          "attributes": {
            "NORMAL": 1,
            "POSITION": 0,
            "TEXCOORD_0": 2
          },
          "indices": 3,
          "material": 0,
          "mode": 4
        }
      ]
    },
    {
      "name": "Object_1",
      "primitives": [
        {
          "attributes": {
            "NORMAL": 5,
            "POSITION": 4,
            "TEXCOORD_0": 6
          },
          "indices": 7,
          "material": 1,
          "mode": 4
        }
      ]
    },
    {
      "name": "Object_2",
      "primitives": [
        {
          "attributes": {
            "NORMAL": 9,
            "POSITION": 8,
            "TEXCOORD_0": 10
          },
          "indices": 11,
          "material": 3,
          "mode": 4
        }
      ]
    },
    {
      "name": "Object_3",
      "primitives": [
        {
          "attributes": {
            "NORMAL": 13,
            "POSITION": 12,
            "TEXCOORD_0": 14
          },
          "indices": 15,
          "material": 2,
          "mode": 4
        }
      ]
    },
    {
      "name": "Object_4",
      "primitives": [
        {
          "attributes": {
            "NORMAL": 17,
            "POSITION": 16,
            "TEXCOORD_0": 18
          },
          "indices": 19,
          "material": 2,
          "mode": 4
        }
      ]
    }
  ],
  "nodes": [
    {
      "children": [
        1
      ],
      "matrix": [
        1.0,
        0.0,
        0.0,
        0.0,
        0.0,
        2.220446049250313e-16,
        -1.0,
        0.0,
        0.0,
        1.0,
        2.220446049250313e-16,
        0.0,
        0.0,
        0.0,
        0.0,
        1.0
      ],
      "name": "Sketchfab_model"
    },
    {
      "children": [
        2,
        3,
        4,
        5,
        6
      ],
      "name": "Fillmore.obj.cleaner.materialmerger.gles"
    },
    {
      "mesh": 0,
      "name": "Object_2"
    },
    {
      "mesh": 1,
      "name": "Object_3"
    },
    {
      "mesh": 2,
      "name": "Object_4"
    },
    {
      "mesh": 3,
      "name": "Object_5"
    },
    {
      "mesh": 4,
      "name": "Object_6"
    }
  ],
  "samplers": [
    {
      "magFilter": 9729,
      "minFilter": 9987,
      "wrapS": 10497,
      "wrapT": 10497
    }
  ],
  "scene": 0,
  "scenes": [
    {
      "name": "Sketchfab_Scene",
      "nodes": [
        0
      ]
    }
  ],
  "textures": [
    {
      "sampler": 0,
      "source": 0
    },
    {
      "sampler": 0,
      "source": 1
    },
    {
      "sampler": 0,
      "source": 2
    },
    {
      "sampler": 0,
      "source": 3
    }
  ]
}
