{
  "accessors": [
    {
      "bufferView": 2,
      "componentType": 5126,
      "count": 20,
      "max": [
        0.6662060022354126,
        -0.7590709924697876,
        2.263129949569702
      ],
      "min": [
        -0.6662060022354126,
        -1.0640100240707397,
        1.6028900146484375
      ],
      "type": "VEC3"
    },
    {
      "bufferView": 2,
      "byteOffset": 240,
      "componentType": 5126,
      "count": 20,
      "max": [
        0.5622022151947021,
        -0.799558162689209,
        0.21110083162784576
      ],
      "min": [
        -0.5622705817222595,
        -0.9847442507743835,
        0.16499853134155273
      ],
      "type": "VEC3"
    },
    {
      "bufferView": 1,
      "componentType": 5126,
      "count": 20,
      "max": [
        0.9961709976196289,
        0.992501974105835
      ],
      "min": [
        0.0040259999223053455,
        0.009507999755442142
      ],
      "type": "VEC2"
    },
    {
      "bufferView": 0,
      "componentType": 5125,
      "count": 72,
      "type": "SCALAR"
    },
    {
      "bufferView": 2,
      "byteOffset": 480,
      "componentType": 5126,
      "count": 754,
      "max": [
        1.0784109830856323,
        1.858728051185608,
        0.8964999914169312
      ],
      "min": [
        -1.0784109830856323,
        -1.8687479496002197,
        -0.006657000165432692
      ],
      "type": "VEC3"
    },
    {
      "bufferView": 2,
      "byteOffset": 9528,
      "componentType": 5126,
      "count": 754,
      "max": [
        1.0,
        1.0,
        1.0
      ],
      "min": [
        -1.0,
        -1.0,
        -1.0
      ],
      "type": "VEC3"
    },
    {
      "bufferView": 1,
      "byteOffset": 160,
      "componentType": 5126,
      "count": 754,
      "max": [
        3.0920569896698,
        0.9980490207672119
      ],
      "min": [
        0.9252719879150391,
        0.007884000428020954
      ],
      "type": "VEC2"
    },
    {
      "bufferView": 0,
      "byteOffset": 288,
      "componentType": 5125,
      "count": 2880,
      "type": "SCALAR"
    },
    {
      "bufferView": 2,
      "byteOffset": 18576,
      "componentType": 5126,
      "count": 1347,
      "max": [
        1.2243590354919434,
        0.2632960081100464,
        2.482517957687378
      ],
      "min": [
        -1.2030409574508667,
        -2.309828996658325,
        0.3616989850997925
      ],
      "type": "VEC3"
    },
    {
      "bufferView": 2,
      "byteOffset": 34740,
      "componentType": 5126,
      "count": 1347,
      "max": [
        0.999453604221344,
        0.9998416304588318,
        1.0
      ],
      "min": [
        -0.9991906881332397,
        -0.9999679327011108,
        -0.9999998807907104
      ],
      "type": "VEC3"
    },
    {
      "bufferView": 1,
      "byteOffset": 6192,
      "componentType": 5126,
      "count": 1347,
      "max": [
        -0.0044450000859797,
        0.9988600015640259
      ],
      "min": [
        -0.9953140020370483,
        0.0019570000004023314
      ],
      "type": "VEC2"
    },
    {
      "bufferView": 0,
      "byteOffset": 11808,
      "componentType": 5125,
      "count": 3930,
      "type": "SCALAR"
    },
    {
      "bufferView": 2,
      "byteOffset": 50904,
      "componentType": 5126,
      "count": 159,
      "max": [
        0.9655669927597046,
        2.7910799980163574,
        1.85602605342865
      ],
      "min": [
        -0.9677450060844421,
        -2.1698598861694336,
        0.22005100548267365
      ],
      "type": "VEC3"
    },
    {
      "bufferView": 2,
      "byteOffset": 52812,
      "componentType": 5126,
      "count": 159,
      "max": [
        0.991115391254425,
        1.0,
        1.0
      ],
      "min": [
        -0.991115391254425,
        -1.0,
        -1.0
      ],
      "type": "VEC3"
    },
    {
      "bufferView": 1,
      "byteOffset": 16968,
      "componentType": 5126,
      "count": 159,
      "max": [
        1.00075101852417,
        0.8308799862861633
      ],
      "min": [
        0.09104199707508087,
        0.009955000132322311
      ],
      "type": "VEC2"
    },
    {
      "bufferView": 0,
      "byteOffset": 27528,
      "componentType": 5125,
      "count": 405,
      "type": "SCALAR"
    },
    {
      "bufferView": 2,
      "byteOffset": 54720,
      "componentType": 5126,
      "count": 2823,
      "max": [
        1.0405000448226929,
        2.677203893661499,
        2.590749979019165
      ],
      "min": [
        -1.0401999950408936,
        0.2934100031852722,
        0.42595401406288147
      ],
      "type": "VEC3"
    },
    {
      "bufferView": 2,
      "byteOffset": 88596,
      "componentType": 5126,
      "count": 2823,
      "max": [
        1.0,
        1.0,
        1.0
      ],
      "min": [
        -1.0,
        -1.0,
        -1.0
      ],
      "type": "VEC3"
    },
    {
      "bufferView": 1,
      "byteOffset": 18240,
      "componentType": 5126,
      "count": 2823,
      "max": [
        1.000141978263855,
        4.0
      ],
      "min": [
        -0.0016129999421536922,
        0.0
      ],
      "type": "VEC2"
    },
    {
      "bufferView": 0,
      "byteOffset": 29148,
      "componentType": 5125,
      "count": 7008,
      "type": "SCALAR"
    },
    {
      "bufferView": 2,
      "byteOffset": 122472,
      "componentType": 5126,
      "count": 252,
      "max": [
        0.7143170237541199,
        -1.1569910049438477,
        1.4980299472808838
      ],
      "min": [
        -0.7143170237541199,
        -2.1591460704803467,
        0.3229919970035553
      ],
      "type": "VEC3"
    },
    {
      "bufferView": 2,
      "byteOffset": 125496,
      "componentType": 5126,
      "count": 252,
      "max": [
        0.9987290501594543,
        1.0,
        1.0
      ],
      "min": [
        -0.9987290501594543,
        -1.0,
        -1.0
      ],
      "type": "VEC3"
    },
    {
      "bufferView": 1,
      "byteOffset": 40824,
      "componentType": 5126,
      "count": 252,
      "max": [
        0.7704309821128845,
        0.999671995639801
      ],
      "min": [
        0.5185329914093018,
        0.18585799634456635
      ],
      "type": "VEC2"
    },
    {
      "bufferView": 0,
      "byteOffset": 57180,
      "componentType": 5125,
      "count": 624,
      "type": "SCALAR"
    }
  ],
  "asset": {
    "extras": {
      "author": "kylewithem08 (https://sketchfab.com/kylewithem08)",
      "license": "CC-BY-4.0 (http://creativecommons.org/licenses/by/4.0/)",
      "source": "https://sketchfab.com/3d-models/mater-from-cars-2-game-wii-and-pc-03e39f9df4544c0fa7c2ec27a53e6d8a",
      "title": "Mater From Cars 2 Game Wii And PC"
    },
    "generator": "Sketchfab-16.8.0",
    "version": "2.0"
  },
  "bufferViews": [
    {
      "buffer": 0,
      "byteLength": 59676,
      "name": "floatBufferViews",
      "target": 34963
    },
    {
      "buffer": 0,
      "byteLength": 42840,
      "byteOffset": 59676,
      "byteStride": 8,
      "name": "floatBufferViews",
      "target": 34962
    },
    {
      "buffer": 0,
      "byteLength": 128520,
      "byteOffset": 102516,
      "byteStride": 12,
      "name": "floatBufferViews",
      "target": 34962
    }
  ],
  "buffers": [
    {
      "byteLength": 231036,
      "uri": "scene.bin"
    }
  ],
  "images": [
    {
      "uri": "textures/Material.001_baseColor.jpeg"
    },
    {
      "uri": "textures/mat0.001_baseColor.png"
    },
    {
      "uri": "textures/mat0.002_baseColor.png"
    },
    {
      "uri": "textures/mat0.003_baseColor.png"
    },
    {
      "uri": "textures/mat0.004_baseColor.png"
    },
    {
      "uri": "textures/mat0.005_baseColor.png"
    }
  ],
  "materials": [
    {
      "doubleSided": true,
      "name": "Material.001",
      "pbrMetallicRoughness": {
        "baseColorTexture": {
          "index": 0
        },
        "metallicFactor": 0.0,
        "roughnessFactor": 0.8011823178082373
      }
    },
    {
      "doubleSided": true,
      "name": "mat0.001",
      "pbrMetallicRoughness": {
        "baseColorTexture": {
          "index": 1
        },
        "metallicFactor": 0.0
      }
    },
    {
      "doubleSided": true,
      "name": "mat0.002",
      "pbrMetallicRoughness": {
        "baseColorTexture": {
          "index": 2
        },
        "metallicFactor": 0.0
      }
    },
    {
      "doubleSided": true,
      "name": "mat0.003",
      "pbrMetallicRoughness": {
        "baseColorTexture": {
          "index": 3
        },
        "metallicFactor": 0.0
      }
    },
    {
      "doubleSided": true,
      "name": "mat0.004",
      "pbrMetallicRoughness": {
        "baseColorTexture": {
          "index": 4
        },
        "metallicFactor": 0.0
      }
    },
    {
      "doubleSided": true,
      "name": "mat0.005",
      "pbrMetallicRoughness": {
        "baseColorTexture": {
          "index": 5
        },
        "metallicFactor": 0.0
      }
    }
  ],
  "meshes": [
    {
      "name": "Object_0",
      "primitives": [
        {
          "attributes": {
            "NORMAL": 1,
            "POSITION": 0,
            "TEXCOORD_0": 2
          },
          "indices": 3,
          "material": 0,
          "mode": 4
        }
      ]
    },
    {
      "name": "Object_1",
      "primitives": [
        {
          "attributes": {
            "NORMAL": 5,
            "POSITION": 4,
            "TEXCOORD_0": 6
          },
          "indices": 7,
          "material": 1,
          "mode": 4
        }
      ]
    },
    {
      "name": "Object_2",
      "primitives": [
        {
          "attributes": {
            "NORMAL": 9,
            "POSITION": 8,
            "TEXCOORD_0": 10
          },
          "indices": 11,
          "material": 2,
          "mode": 4
        }
      ]
    },
    {
      "name": "Object_3",
      "primitives": [
        {
          "attributes": {
            "NORMAL": 13,
            "POSITION": 12,
            "TEXCOORD_0": 14
          },
          "indices": 15,
          "material": 4,
          "mode": 4
        }
      ]
    },
    {
      "name": "Object_4",
      "primitives": [
        {
          "attributes": {
            "NORMAL": 17,
            "POSITION": 16,
            "TEXCOORD_0": 18
          },
          "indices": 19,
          "material": 3,
          "mode": 4
        }
      ]
    },
    {
      "name": "Object_5",
      "primitives": [
        {
          "attributes": {
            "NORMAL": 21,
            "POSITION": 20,
            "TEXCOORD_0": 22
          },
          "indices": 23,
          "material": 5,
          "mode": 4
        }
      ]
    }
  ],
  "nodes": [
    {
      "children": [
        1
      ],
      "matrix": [
        1.0,
        0.0,
        0.0,
        0.0,
        0.0,
        2.220446049250313e-16,
        -1.0,
        0.0,
        0.0,
        1.0,
        2.220446049250313e-16,
        0.0,
        0.0,
        0.0,
        0.0,
        1.0
      ],
      "name": "Sketchfab_model"
    },
    {
      "children": [
        2,
        3,
        4,
        5,
        6,
        7
      ],
      "name": "mater.obj.cleaner.materialmerger.gles"
    },
    {
      "mesh": 0,
      "name": "Object_2"
    },
    {
      "mesh": 1,
      "name": "Object_3"
    },
    {
      "mesh": 2,
      "name": "Object_4"
    },
    {
      "mesh": 3,
      "name": "Object_5"
    },
    {
      "mesh": 4,
      "name": "Object_6"
    },
    {
      "mesh": 5,
      "name": "Object_7"
    }
  ],
  "samplers": [
    {
      "magFilter": 9729,
      "minFilter": 9987,
      "wrapS": 10497,
      "wrapT": 10497
    }
  ],
  "scene": 0,
  "scenes": [
    {
      "name": "Sketchfab_Scene",
      "nodes": [
        0
      ]
    }
  ],
  "textures": [
    {
      "sampler": 0,
      "source": 0
    },
    {
      "sampler": 0,
      "source": 1
    },
    {
      "sampler": 0,
      "source": 2
    },
    {
      "sampler": 0,
      "source": 3
    },
    {
      "sampler": 0,
      "source": 4
    },
    {
      "sampler": 0,
      "source": 5
    }
  ]
}
