{
  "accessors": [
    {
      "bufferView": 2,
      "componentType": 5126,
      "count": 26,
      "max": [
        1.9453120231628418,
        -1.0507800579071045,
        4.269530773162842
      ],
      "min": [
        -1.9453120231628418,
        -1.4570300579071045,
        4.015625
      ],
      "type": "VEC3"
    },
    {
      "bufferView": 2,
      "byteOffset": 312,
      "componentType": 5126,
      "count": 26,
      "max": [
        0.3653101325035095,
        -0.5585154891014099,
        0.7893899083137512
      ],
      "min": [
        -0.3653101325035095,
        -0.6138921976089478,
        0.7433997988700867
      ],
      "type": "VEC3"
    },
    {
      "bufferView": 1,
      "componentType": 5126,
      "count": 26,
      "max": [
        0.9584959745407104,
        0.9536129832267761
      ],
      "min": [
        0.04394499957561493,
        0.05615200102329254
      ],
      "type": "VEC2"
    },
    {
      "bufferView": 0,
      "componentType": 5125,
      "count": 72,
      "type": "SCALAR"
    },
    {
      "bufferView": 2,
      "byteOffset": 624,
      "componentType": 5126,
      "count": 148,
      "max": [
        3.011718988418579,
        6.28125,
        4.59375
      ],
      "min": [
        -3.011718988418579,
        -6.546875,
        1.8437509536743164
      ],
      "type": "VEC3"
    },
    {
      "bufferView": 2,
      "byteOffset": 2400,
      "componentType": 5126,
      "count": 148,
      "max": [
        0.9902521967887878,
        0.9805845618247986,
        0.9296988248825073
      ],
      "min": [
        -0.9902521967887878,
        -0.7533993124961853,
        -0.28791406750679016
      ],
      "type": "VEC3"
    },
    {
      "bufferView": 1,
      "byteOffset": 208,
      "componentType": 5126,
      "count": 148,
      "max": [
        -0.014159999787807465,
        -0.016112999990582466
      ],
      "min": [
        -0.9873049855232239,
        -0.9882810115814209
      ],
      "type": "VEC2"
    },
    {
      "bufferView": 0,
      "byteOffset": 288,
      "componentType": 5125,
      "count": 390,
      "type": "SCALAR"
    },
    {
      "bufferView": 2,
      "byteOffset": 4176,
      "componentType": 5126,
      "count": 2384,
      "max": [
        3.34375,
        6.53125,
        4.882812023162842
      ],
      "min": [
        -3.34375,
        -7.191405773162842,
        0.08202999830245972
      ],
      "type": "VEC3"
    },
    {
      "bufferView": 2,
      "byteOffset": 32784,
      "componentType": 5126,
      "count": 2384,
      "max": [
        1.0,
        1.0,
        1.0
      ],
      "min": [
        -1.0,
        -0.9986833333969116,
        -0.9999998807907104
      ],
      "type": "VEC3"
    },
    {
      "bufferView": 1,
      "byteOffset": 1392,
      "componentType": 5126,
      "count": 2384,
      "max": [
        0.9980469942092896,
        0.9985349774360657
      ],
      "min": [
        0.0019529999699443579,
        0.0014649999793618917
      ],
      "type": "VEC2"
    },
    {
      "bufferView": 0,
      "byteOffset": 1848,
      "componentType": 5125,
      "count": 9090,
      "type": "SCALAR"
    },
    {
      "bufferView": 2,
      "byteOffset": 61392,
      "componentType": 5126,
      "count": 1704,
      "max": [
        3.34375,
        4.761719226837158,
        1.9140629768371582
      ],
      "min": [
        -3.34375,
        -5.550780773162842,
        -0.5000010132789612
      ],
      "type": "VEC3"
    },
    {
      "bufferView": 2,
      "byteOffset": 81840,
      "componentType": 5126,
      "count": 1704,
      "max": [
        1.0,
        0.9823782444000244,
        0.9826117157936096
      ],
      "min": [
        -1.0,
        -0.9824379682540894,
        -0.9914805293083191
      ],
      "type": "VEC3"
    },
    {
      "bufferView": 1,
      "byteOffset": 20464,
      "componentType": 5126,
      "count": 1704,
      "max": [
        1.999511957168579,
        -0.0039059999398887157
      ],
      "min": [
        -1.094238042831421,
        -0.9975590109825134
      ],
      "type": "VEC2"
    },
    {
      "bufferView": 0,
      "byteOffset": 38208,
      "componentType": 5125,
      "count": 5424,
      "type": "SCALAR"
    },
    {
      "bufferView": 2,
      "byteOffset": 102288,
      "componentType": 5126,
      "count": 10,
      "max": [
        2.386718988418579,
        -0.6796870231628418,
        4.527344226837158
      ],
      "min": [
        -2.386718988418579,
        -2.699218988418579,
        2.960937976837158
      ],
      "type": "VEC3"
    },
    {
      "bufferView": 2,
      "byteOffset": 102408,
      "componentType": 5126,
      "count": 10,
      "max": [
        0.2936080992221832,
        -0.6066621541976929,
        0.7881229519844055
      ],
      "min": [
        -0.2936080992221832,
        -0.62546306848526,
        0.7377203702926636
      ],
      "type": "VEC3"
    },
    {
      "bufferView": 1,
      "byteOffset": 34096,
      "componentType": 5126,
      "count": 10,
      "max": [
        3.310059070587158,
        2.10595703125
      ],
      "min": [
        -2.309570074081421,
        -0.7172849774360657
      ],
      "type": "VEC2"
    },
    {
      "bufferView": 0,
      "byteOffset": 59904,
      "componentType": 5125,
      "count": 48,
      "type": "SCALAR"
    }
  ],
  "asset": {
    "extras": {
      "author": "kanaleja87 (https://sketchfab.com/kanaleja87)",
      "license": "CC-BY-4.0 (http://creativecommons.org/licenses/by/4.0/)",
      "source": "https://sketchfab.com/3d-models/sally-carrera-wii-17247f3eaca9405db6963131c1ca251e",
      "title": "Sally Carrera (Wii)"
    },
    "generator": "Sketchfab-15.61.0",
    "version": "2.0"
  },
  "bufferViews": [
    {
      "buffer": 0,
      "byteLength": 60096,
      "name": "floatBufferViews",
      "target": 34963
    },
    {
      "buffer": 0,
      "byteLength": 34176,
      "byteOffset": 60096,
      "byteStride": 8,
      "name": "floatBufferViews",
      "target": 34962
    },
    {
      "buffer": 0,
      "byteLength": 102528,
      "byteOffset": 94272,
      "byteStride": 12,
      "name": "floatBufferViews",
      "target": 34962
    }
  ],
  "buffers": [
    {
      "byteLength": 196800,
      "uri": "scene.bin"
    }
  ],
  "images": [
    {
      "uri": "textures/Body_baseColor.png"
    },
    {
      "uri": "textures/Eyes_baseColor.png"
    },
    {
      "uri": "textures/Glass_baseColor.png"
    },
    {
      "uri": "textures/Tires_baseColor.png"
    }
  ],
  "materials": [
    {
      "doubleSided": true,
      "name": "Body",
      "pbrMetallicRoughness": {
        "baseColorTexture": {
          "index": 0
        },
        "metallicFactor": 0.0,
        "roughnessFactor": 0.6
      }
    },
    {
      "doubleSided": true,
      "name": "Eyes",
      "pbrMetallicRoughness": {
        "baseColorTexture": {
          "index": 1
        },
        "metallicFactor": 0.0,
        "roughnessFactor": 0.6
      }
    },
    {
      "doubleSided": true,
      "name": "Eyeshadow",
      "pbrMetallicRoughness": {
        "baseColorFactor": [
          0.0,
          0.0,
          0.0,
          1.0
        ],
        "metallicFactor": 0.0,
        "roughnessFactor": 0.6
      }
    },
    {
      "doubleSided": true,
      "name": "Glass",
      "pbrMetallicRoughness": {
        "baseColorTexture": {
          "index": 2
        },
        "metallicFactor": 0.0,
        "roughnessFactor": 0.6
      }
    },
    {
      "doubleSided": true,
      "name": "Tires",
      "pbrMetallicRoughness": {
        "baseColorTexture": {
          "index": 3
        },
        "metallicFactor": 0.0,
        "roughnessFactor": 0.6
      }
    }
  ],
  "meshes": [
    {
      "name": "Object_0",
      "primitives": [
        {
          "attributes": {
            "NORMAL": 1,
            "POSITION": 0,
            "TEXCOORD_0": 2
          },
          "indices": 3,
          "material": 2,
          "mode": 4
        }
      ]
    },
    {
      "name": "Object_1",
      "primitives": [
        {
          "attributes": {
            "NORMAL": 5,
            "POSITION": 4,
            "TEXCOORD_0": 6
          },
          "indices": 7,
          "material": 3,
          "mode": 4
        }
      ]
    },
    {
      "name": "Object_2",
      "primitives": [
        {
          "attributes": {
            "NORMAL": 9,
            "POSITION": 8,
            "TEXCOORD_0": 10
          },
          "indices": 11,
          "material": 0,
          "mode": 4
        }
      ]
    },
    {
      "name": "Object_3",
      "primitives": [
        {
          "attributes": {
            "NORMAL": 13,
            "POSITION": 12,
            "TEXCOORD_0": 14
          },
          "indices": 15,
          "material": 4,
          "mode": 4
        }
      ]
    },
    {
      "name": "Object_4",
      "primitives": [
        {
          "attributes": {
            "NORMAL": 17,
            "POSITION": 16,
            "TEXCOORD_0": 18
          },
          "indices": 19,
          "material": 1,
          "mode": 4
        }
      ]
    }
  ],
  "nodes": [
    {
      "children": [
        1
      ],
      "matrix": [
        1.0,
        0.0,
        0.0,
        0.0,
        0.0,
        2.220446049250313e-16,
        -1.0,
        0.0,
        0.0,
        1.0,
        2.220446049250313e-16,
        0.0,
        0.0,
        0.0,
        0.0,
        1.0
      ],
      "name": "Sketchfab_model"
    },
    {
      "children": [
        2,
        3,
        4,
        5,
        6
      ],
      "name": "892c76eb67a34d0d97058dee454e3751.obj.cleaner.materialmerger.gles"
    },
    {
      "mesh": 0,
      "name": "Object_2"
    },
    {
      "mesh": 1,
      "name": "Object_3"
    },
    {
      "mesh": 2,
      "name": "Object_4"
    },
    {
      "mesh": 3,
      "name": "Object_5"
    },
    {
      "mesh": 4,
      "name": "Object_6"
    }
  ],
  "samplers": [
    {
      "magFilter": 9729,
      "minFilter": 9987,
      "wrapS": 10497,
      "wrapT": 10497
    }
  ],
  "scene": 0,
  "scenes": [
    {
      "name": "Sketchfab_Scene",
      "nodes": [
        0
      ]
    }
  ],
  "textures": [
    {
      "sampler": 0,
      "source": 0
    },
    {
      "sampler": 0,
      "source": 1
    },
    {
      "sampler": 0,
      "source": 2
    },
    {
      "sampler": 0,
      "source": 3
    }
  ]
}
