{
  "accessors": [
    {
      "bufferView": 2,
      "componentType": 5126,
      "count": 6504,
      "max": [
        0.8906700015068054,
        1.7141530513763428,
        2.1204049587249756
      ],
      "min": [
        -0.8906700015068054,
        -1.4294990301132202,
        0.24255900084972382
      ],
      "type": "VEC3"
    },
    {
      "bufferView": 2,
      "byteOffset": 78048,
      "componentType": 5126,
      "count": 6504,
      "max": [
        1.0,
        1.0,
        1.0
      ],
      "min": [
        -1.0,
        -1.0,
        -1.0
      ],
      "type": "VEC3"
    },
    {
      "bufferView": 1,
      "componentType": 5126,
      "count": 6504,
      "max": [
        3.6653389930725098,
        0.997780978679657
      ],
      "min": [
        0.0024679999332875013,
        -0.0006399999838322401
      ],
      "type": "VEC2"
    },
    {
      "bufferView": 0,
      "componentType": 5125,
      "count": 14136,
      "type": "SCALAR"
    },
    {
      "bufferView": 2,
      "byteOffset": 156096,
      "componentType": 5126,
      "count": 30,
      "max": [
        0.663224995136261,
        1.5029829740524292,
        0.8467580080032349
      ],
      "min": [
        -0.663224995136261,
        1.4962689876556396,
        0.7416989803314209
      ],
      "type": "VEC3"
    },
    {
      "bufferView": 2,
      "byteOffset": 156456,
      "componentType": 5126,
      "count": 30,
      "max": [
        0.17769862711429596,
        0.999629020690918,
        0.8856775760650635
      ],
      "min": [
        -0.17769862711429596,
        -0.9996312260627747,
        -0.17779546976089478
      ],
      "type": "VEC3"
    },
    {
      "bufferView": 1,
      "byteOffset": 52032,
      "componentType": 5126,
      "count": 30,
      "max": [
        0.11709100008010864,
        0.09485000371932983
      ],
      "min": [
        0.08200599998235703,
        0.05976499989628792
      ],
      "type": "VEC2"
    },
    {
      "bufferView": 0,
      "byteOffset": 56544,
      "componentType": 5125,
      "count": 48,
      "type": "SCALAR"
    },
    {
      "bufferView": 2,
      "byteOffset": 156816,
      "componentType": 5126,
      "count": 1711,
      "max": [
        0.7793980240821838,
        1.7848279476165771,
        1.7126679420471191
      ],
      "min": [
        -0.7793980240821838,
        -1.2807890176773071,
        -0.0018360000103712082
      ],
      "type": "VEC3"
    },
    {
      "bufferView": 2,
      "byteOffset": 177348,
      "componentType": 5126,
      "count": 1711,
      "max": [
        1.0,
        1.0,
        1.0
      ],
      "min": [
        -1.0,
        -1.0,
        -1.0
      ],
      "type": "VEC3"
    },
    {
      "bufferView": 1,
      "byteOffset": 52272,
      "componentType": 5126,
      "count": 1711,
      "max": [
        4.998997211456299,
        1.001405954360962
      ],
      "min": [
        -0.06004500016570091,
        0.012397999875247478
      ],
      "type": "VEC2"
    },
    {
      "bufferView": 0,
      "byteOffset": 56736,
      "componentType": 5125,
      "count": 3936,
      "type": "SCALAR"
    },
    {
      "bufferView": 2,
      "byteOffset": 197880,
      "componentType": 5126,
      "count": 12,
      "max": [
        0.590008020401001,
        -0.14979000389575958,
        1.7723699808120728
      ],
      "min": [
        -0.590008020401001,
        -0.2697319984436035,
        1.3933219909667969
      ],
      "type": "VEC3"
    },
    {
      "bufferView": 2,
      "byteOffset": 198024,
      "componentType": 5126,
      "count": 12,
      "max": [
        0.15069539844989777,
        0.9527454376220703,
        0.6307106018066406
      ],
      "min": [
        -0.1523018181324005,
        -0.9760974645614624,
        -0.9892825484275818
      ],
      "type": "VEC3"
    },
    {
      "bufferView": 1,
      "byteOffset": 65960,
      "componentType": 5126,
      "count": 12,
      "max": [
        1.0,
        0.9934399724006653
      ],
      "min": [
        0.0,
        0.006184000056236982
      ],
      "type": "VEC2"
    },
    {
      "bufferView": 0,
      "byteOffset": 72480,
      "componentType": 5125,
      "count": 24,
      "type": "SCALAR"
    }
  ],
  "asset": {
    "extras": {
      "author": "chikn nuggit and spongebob (https://sketchfab.com/pma2)",
      "license": "CC-BY-4.0 (http://creativecommons.org/licenses/by/4.0/)",
      "source": "https://sketchfab.com/3d-models/sarge-cars-2-wii-game-233c9038fb1741daa3e66911c7d7887c",
      "title": "Sarge (cars 2 Wii Game)"
    },
    "generator": "Sketchfab-15.14.0",
    "version": "2.0"
  },
  "bufferViews": [
    {
      "buffer": 0,
      "byteLength": 72576,
      "name": "floatBufferViews",
      "target": 34963
    },
    {
      "buffer": 0,
      "byteLength": 66056,
      "byteOffset": 72576,
      "byteStride": 8,
      "name": "floatBufferViews",
      "target": 34962
    },
    {
      "buffer": 0,
      "byteLength": 198168,
      "byteOffset": 138632,
      "byteStride": 12,
      "name": "floatBufferViews",
      "target": 34962
    }
  ],
  "buffers": [
    {
      "byteLength": 336800,
      "uri": "scene.bin"
    }
  ],
  "images": [
    {
      "uri": "textures/Material.001_baseColor.png"
    },
    {
      "uri": "textures/Material.003_baseColor.png"
    },
    {
      "uri": "textures/Material.004_baseColor.png"
    }
  ],
  "materials": [
    {
      "doubleSided": true,
      "name": "Material.001",
      "pbrMetallicRoughness": {
        "baseColorTexture": {
          "index": 0
        },
        "metallicFactor": 0.0,
        "roughnessFactor": 0.8063508326896291
      }
    },
    {
      "doubleSided": true,
      "name": "Material.002",
      "pbrMetallicRoughness": {
        "baseColorTexture": {
          "index": 0
        },
        "metallicFactor": 0.0,
        "roughnessFactor": 0.8063508326896291
      }
    },
    {
      "doubleSided": true,
      "name": "Material.003",
      "pbrMetallicRoughness": {
        "baseColorTexture": {
          "index": 1
        },
        "metallicFactor": 0.0,
        "roughnessFactor": 0.8063508326896291
      }
    },
    {
      "doubleSided": true,
      "name": "Material.004",
      "pbrMetallicRoughness": {
        "baseColorTexture": {
          "index": 2
        },
        "metallicFactor": 0.0,
        "roughnessFactor": 0.8063508326896291
      }
    }
  ],
  "meshes": [
    {
      "name": "Object_0",
      "primitives": [
        {
          "attributes": {
            "NORMAL": 1,
            "POSITION": 0,
            "TEXCOORD_0": 2
          },
          "indices": 3,
          "material": 0,
          "mode": 4
        }
      ]
    },
    {
      "name": "Object_1",
      "primitives": [
        {
          "attributes": {
            "NORMAL": 5,
            "POSITION": 4,
            "TEXCOORD_0": 6
          },
          "indices": 7,
          "material": 1,
          "mode": 4
        }
      ]
    },
    {
      "name": "Object_2",
      "primitives": [
        {
          "attributes": {
            "NORMAL": 9,
            "POSITION": 8,
            "TEXCOORD_0": 10
          },
          "indices": 11,
          "material": 2,
          "mode": 4
        }
      ]
    },
    {
      "name": "Object_3",
      "primitives": [
        {
          "attributes": {
            "NORMAL": 13,
            "POSITION": 12,
            "TEXCOORD_0": 14
          },
          "indices": 15,
          "material": 3,
          "mode": 4
        }
      ]
    }
  ],
  "nodes": [
    {
      "children": [
        1
      ],
      "matrix": [
        1.0,
        0.0,
        0.0,
        0.0,
        0.0,
        2.220446049250313e-16,
        -1.0,
        0.0,
        0.0,
        1.0,
        2.220446049250313e-16,
        0.0,
        0.0,
        0.0,
        0.0,
        1.0
      ],
      "name": "Sketchfab_model"
    },
    {
      "children": [
        2,
        3,
        4,
        5
      ],
      "name": "sarge.obj.cleaner.materialmerger.gles"
    },
    {
      "mesh": 0,
      "name": "Object_2"
    },
    {
      "mesh": 1,
      "name": "Object_3"
    },
    {
      "mesh": 2,
      "name": "Object_4"
    },
    {
      "mesh": 3,
      "name": "Object_5"
    }
  ],
  "samplers": [
    {
      "magFilter": 9729,
      "minFilter": 9987,
      "wrapS": 10497,
      "wrapT": 10497
    }
  ],
  "scene": 0,
  "scenes": [
    {
      "name": "Sketchfab_Scene",
      "nodes": [
        0
      ]
    }
  ],
  "textures": [
    {
      "sampler": 0,
      "source": 0
    },
    {
      "sampler": 0,
      "source": 1
    },
    {
      "sampler": 0,
      "source": 2
    }
  ]
}
