{
  "accessors": [
    {
      "bufferView": 2,
      "componentType": 5126,
      "count": 24,
      "max": [
        2.181196928024292,
        -0.5606284141540527,
        4.642674922943115
      ],
      "min": [
        -2.38911509513855,
        -2.168911933898926,
        3.272317886352539
      ],
      "type": "VEC3"
    },
    {
      "bufferView": 2,
      "byteOffset": 288,
      "componentType": 5126,
      "count": 24,
      "max": [
        0.33149611949920654,
        -0.6391557455062866,
        0.7134730219841003
      ],
      "min": [
        -0.3096800148487091,
        -0.7214983701705933,
        0.6837043762207031
      ],
      "type": "VEC3"
    },
    {
      "bufferView": 1,
      "componentType": 5126,
      "count": 24,
      "max": [
        3.355468988418579,
        1.8149410486221313
      ],
      "min": [
        -2.355468988418579,
        -0.6005859971046448
      ],
      "type": "VEC2"
    },
    {
      "bufferView": 0,
      "componentType": 5125,
      "count": 66,
      "type": "SCALAR"
    },
    {
      "bufferView": 2,
      "byteOffset": 576,
      "componentType": 5126,
      "count": 5550,
      "max": [
        3.457031011581421,
        7.476562023162842,
        4.859375
      ],
      "min": [
        -3.457031011581421,
        -7.667969226837158,
        0.14843900501728058
      ],
      "type": "VEC3"
    },
    {
      "bufferView": 2,
      "byteOffset": 67176,
      "componentType": 5126,
      "count": 5550,
      "max": [
        1.0,
        1.0,
        1.0
      ],
      "min": [
        -1.0,
        -1.0,
        -1.0
      ],
      "type": "VEC3"
    },
    {
      "bufferView": 1,
      "byteOffset": 192,
      "componentType": 5126,
      "count": 5550,
      "max": [
        0.9995120167732239,
        2.0
      ],
      "min": [
        0.0009769999887794256,
        0.0014649999793618917
      ],
      "type": "VEC2"
    },
    {
      "bufferView": 0,
      "byteOffset": 264,
      "componentType": 5125,
      "count": 16461,
      "type": "SCALAR"
    },
    {
      "bufferView": 2,
      "byteOffset": 133776,
      "componentType": 5126,
      "count": 4530,
      "max": [
        3.273245096206665,
        5.355470180511475,
        2.6275899410247803
      ],
      "min": [
        -3.4689440727233887,
        -7.039062023162842,
        -0.29428648948669434
      ],
      "type": "VEC3"
    },
    {
      "bufferView": 2,
      "byteOffset": 188136,
      "componentType": 5126,
      "count": 4530,
      "max": [
        1.0,
        0.9998902082443237,
        0.9998902082443237
      ],
      "min": [
        -1.0,
        -0.9998903274536133,
        -1.0
      ],
      "type": "VEC3"
    },
    {
      "bufferView": 1,
      "byteOffset": 44592,
      "componentType": 5126,
      "count": 4530,
      "max": [
        2.0,
        0.9965819716453552
      ],
      "min": [
        -1.0,
        -0.0004879999905824661
      ],
      "type": "VEC2"
    },
    {
      "bufferView": 0,
      "byteOffset": 66108,
      "componentType": 5125,
      "count": 11352,
      "type": "SCALAR"
    },
    {
      "bufferView": 2,
      "byteOffset": 242496,
      "componentType": 5126,
      "count": 30,
      "max": [
        1.225250005722046,
        -1.3013989925384521,
        4.144668102264404
      ],
      "min": [
        -1.2486720085144043,
        -1.9089690446853638,
        3.551827907562256
      ],
      "type": "VEC3"
    },
    {
      "bufferView": 2,
      "byteOffset": 242856,
      "componentType": 5126,
      "count": 30,
      "max": [
        0.33772069215774536,
        -0.6664605736732483,
        0.6956930756568909
      ],
      "min": [
        -0.1190745159983635,
        -0.7234705686569214,
        0.6646615862846375
      ],
      "type": "VEC3"
    },
    {
      "bufferView": 1,
      "byteOffset": 80832,
      "componentType": 5126,
      "count": 30,
      "max": [
        1.9991580247879028,
        1.0159389972686768
      ],
      "min": [
        -1.0046559572219849,
        0.001639485009945929
      ],
      "type": "VEC2"
    },
    {
      "bufferView": 0,
      "byteOffset": 111516,
      "componentType": 5125,
      "count": 63,
      "type": "SCALAR"
    }
  ],
  "asset": {
    "extras": {
      "author": "Jamessmartguy (https://sketchfab.com/skybaca1985)",
      "license": "CC-BY-4.0 (http://creativecommons.org/licenses/by/4.0/)",
      "source": "https://sketchfab.com/3d-models/lightning-mcqueen-cars-2006-ac2472a40f3545809c87157ff4d9902e",
      "title": "lightning McQueen Cars (2006)"
    },
    "generator": "Sketchfab-15.91.0",
    "version": "2.0"
  },
  "bufferViews": [
    {
      "buffer": 0,
      "byteLength": 111768,
      "name": "floatBufferViews",
      "target": 34963
    },
    {
      "buffer": 0,
      "byteLength": 81072,
      "byteOffset": 111768,
      "byteStride": 8,
      "name": "floatBufferViews",
      "target": 34962
    },
    {
      "buffer": 0,
      "byteLength": 243216,
      "byteOffset": 192840,
      "byteStride": 12,
      "name": "floatBufferViews",
      "target": 34962
    }
  ],
  "buffers": [
    {
      "byteLength": 436056,
      "uri": "scene.bin"
    }
  ],
  "images": [
    {
      "uri": "textures/Material_4_baseColor.png"
    },
    {
      "uri": "textures/Material_6_baseColor.png"
    },
    {
      "uri": "textures/Material_8_baseColor.png"
    }
  ],
  "materials": [
    {
      "doubleSided": true,
      "name": "Material_10",
      "pbrMetallicRoughness": {
        "metallicFactor": 0.0,
        "roughnessFactor": 0.6
      }
    },
    {
      "doubleSided": true,
      "name": "Material_4",
      "pbrMetallicRoughness": {
        "baseColorTexture": {
          "index": 0
        },
        "metallicFactor": 0.0,
        "roughnessFactor": 0.6
      }
    },
    {
      "doubleSided": true,
      "name": "Material_6",
      "pbrMetallicRoughness": {
        "baseColorTexture": {
          "index": 1
        },
        "metallicFactor": 0.0,
        "roughnessFactor": 0.6
      }
    },
    {
      "doubleSided": true,
      "name": "Material_8",
      "pbrMetallicRoughness": {
        "baseColorTexture": {
          "index": 2
        },
        "metallicFactor": 0.0,
        "roughnessFactor": 0.6
      }
    }
  ],
  "meshes": [
    {
      "name": "Object_0",
      "primitives": [
        {
          "attributes": {
            "NORMAL": 1,
            "POSITION": 0,
            "TEXCOORD_0": 2
          },
          "indices": 3,
          "material": 0,
          "mode": 4
        }
      ]
    },
    {
      "name": "Object_1",
      "primitives": [
        {
          "attributes": {
            "NORMAL": 5,
            "POSITION": 4,
            "TEXCOORD_0": 6
          },
          "indices": 7,
          "material": 1,
          "mode": 4
        }
      ]
    },
    {
      "name": "Object_2",
      "primitives": [
        {
          "attributes": {
            "NORMAL": 9,
            "POSITION": 8,
            "TEXCOORD_0": 10
          },
          "indices": 11,
          "material": 2,
          "mode": 4
        }
      ]
    },
    {
      "name": "Object_3",
      "primitives": [
        {
          "attributes": {
            "NORMAL": 13,
            "POSITION": 12,
            "TEXCOORD_0": 14
          },
          "indices": 15,
          "material": 3,
          "mode": 4
        }
      ]
    }
  ],
  "nodes": [
    {
      "children": [
        1
      ],
      "matrix": [
        1.0,
        0.0,
        0.0,
        0.0,
        0.0,
        2.220446049250313e-16,
        -1.0,
        0.0,
        0.0,
        1.0,
        2.220446049250313e-16,
        0.0,
        0.0,
        0.0,
        0.0,
        1.0
      ],
      "name": "Sketchfab_model"
    },
    {
      "children": [
        2,
        3,
        4,
        5
      ],
      "name": "lightning McQueen Cars.obj.cleaner.materialmerger.gles"
    },
    {
      "mesh": 0,
      "name": "Object_2"
    },
    {
      "mesh": 1,
      "name": "Object_3"
    },
    {
      "mesh": 2,
      "name": "Object_4"
    },
    {
      "mesh": 3,
      "name": "Object_5"
    }
  ],
  "samplers": [
    {
      "magFilter": 9729,
      "minFilter": 9987,
      "wrapS": 10497,
      "wrapT": 10497
    }
  ],
  "scene": 0,
  "scenes": [
    {
      "name": "Sketchfab_Scene",
      "nodes": [
        0
      ]
    }
  ],
  "textures": [
    {
      "sampler": 0,
      "source": 0
    },
    {
      "sampler": 0,
      "source": 1
    },
    {
      "sampler": 0,
      "source": 2
    }
  ]
}
