{
  "accessors": [
    {
      "bufferView": 2,
      "componentType": 5126,
      "count": 3677,
      "max": [
        18.82159996032715,
        10.209799766540527,
        9.43004035949707
      ],
      "min": [
        8.778409957885742,
        -13.809200286865234,
        0.6300389766693115
      ],
      "type": "VEC3"
    },
    {
      "bufferView": 2,
      "byteOffset": 44124,
      "componentType": 5126,
      "count": 3677,
      "max": [
        1.0,
        1.0,
        1.0
      ],
      "min": [
        -1.0,
        -1.0,
        -1.0
      ],
      "type": "VEC3"
    },
    {
      "bufferView": 1,
      "componentType": 5126,
      "count": 3677,
      "max": [
        19.28260040283203,
        15.477100372314453
      ],
      "min": [
        6.226459980010986,
        -15.7475004196167
      ],
      "type": "VEC2"
    },
    {
      "bufferView": 0,
      "componentType": 5125,
      "count": 5475,
      "type": "SCALAR"
    },
    {
      "bufferView": 2,
      "byteOffset": 88248,
      "componentType": 5126,
      "count": 318,
      "max": [
        18.762500762939453,
        10.2298002243042,
        9.43004035949707
      ],
      "min": [
        8.83749008178711,
        -9.763190269470215,
        0.6248419880867004
      ],
      "type": "VEC3"
    },
    {
      "bufferView": 2,
      "byteOffset": 92064,
      "componentType": 5126,
      "count": 318,
      "max": [
        0.07063654065132141,
        1.0,
        0.5121603012084961
      ],
      "min": [
        -0.07063654065132141,
        0.8083967566490173,
        -0.5886379480361938
      ],
      "type": "VEC3"
    },
    {
      "bufferView": 1,
      "byteOffset": 29416,
      "componentType": 5126,
      "count": 318,
      "max": [
        0.9941179752349854,
        1.0
      ],
      "min": [
        0.005882619880139828,
        0.0
      ],
      "type": "VEC2"
    },
    {
      "bufferView": 0,
      "byteOffset": 21900,
      "componentType": 5125,
      "count": 606,
      "type": "SCALAR"
    },
    {
      "bufferView": 2,
      "byteOffset": 95880,
      "componentType": 5126,
      "count": 329,
      "max": [
        18.762500762939453,
        9.171930313110352,
        9.378660202026367
      ],
      "min": [
        8.83749008178711,
        -13.82919979095459,
        0.6292510032653809
      ],
      "type": "VEC3"
    },
    {
      "bufferView": 2,
      "byteOffset": 99828,
      "componentType": 5126,
      "count": 329,
      "max": [
        0.5355656147003174,
        0.007873532362282276,
        0.9999380111694336
      ],
      "min": [
        -0.5355656147003174,
        -1.0,
        -0.6062801480293274
      ],
      "type": "VEC3"
    },
    {
      "bufferView": 1,
      "byteOffset": 31960,
      "componentType": 5126,
      "count": 329,
      "max": [
        0.994117021560669,
        1.0
      ],
      "min": [
        0.005882230121642351,
        0.005838159937411547
      ],
      "type": "VEC2"
    },
    {
      "bufferView": 0,
      "byteOffset": 24324,
      "componentType": 5125,
      "count": 585,
      "type": "SCALAR"
    },
    {
      "bufferView": 2,
      "byteOffset": 103776,
      "componentType": 5126,
      "count": 827,
      "max": [
        18.833799362182617,
        10.208800315856934,
        9.450039863586426
      ],
      "min": [
        8.766119956970215,
        -13.706199645996094,
        2.406830072402954
      ],
      "type": "VEC3"
    },
    {
      "bufferView": 2,
      "byteOffset": 113700,
      "componentType": 5126,
      "count": 827,
      "max": [
        0.980309247970581,
        0.43386515974998474,
        1.0
      ],
      "min": [
        -0.6627129316329956,
        -0.7224412560462952,
        0.19606146216392517
      ],
      "type": "VEC3"
    },
    {
      "bufferView": 1,
      "byteOffset": 34592,
      "componentType": 5126,
      "count": 827,
      "max": [
        1.0,
        1.0
      ],
      "min": [
        0.0,
        0.004885610193014145
      ],
      "type": "VEC2"
    },
    {
      "bufferView": 0,
      "byteOffset": 26664,
      "componentType": 5125,
      "count": 1158,
      "type": "SCALAR"
    },
    {
      "bufferView": 2,
      "byteOffset": 123624,
      "componentType": 5126,
      "count": 802,
      "max": [
        18.84160041809082,
        10.200799942016602,
        9.248129844665527
      ],
      "min": [
        8.820630073547363,
        -13.645700454711914,
        0.6557030081748962
      ],
      "type": "VEC3"
    },
    {
      "bufferView": 2,
      "byteOffset": 133248,
      "componentType": 5126,
      "count": 802,
      "max": [
        1.0,
        0.22814114391803741,
        0.9999690055847168
      ],
      "min": [
        -0.980309247970581,
        -0.7031455039978027,
        -0.6777539253234863
      ],
      "type": "VEC3"
    },
    {
      "bufferView": 1,
      "byteOffset": 41208,
      "componentType": 5126,
      "count": 802,
      "max": [
        0.9955620169639587,
        0.999646008014679
      ],
      "min": [
        0.022245600819587708,
        0.007356049958616495
      ],
      "type": "VEC2"
    },
    {
      "bufferView": 0,
      "byteOffset": 31296,
      "componentType": 5125,
      "count": 1032,
      "type": "SCALAR"
    },
    {
      "bufferView": 2,
      "byteOffset": 142872,
      "componentType": 5126,
      "count": 609,
      "max": [
        18.834800720214844,
        10.21049976348877,
        9.406240463256836
      ],
      "min": [
        8.765179634094238,
        -13.821599960327148,
        0.6100389957427979
      ],
      "type": "VEC3"
    },
    {
      "bufferView": 2,
      "byteOffset": 150180,
      "componentType": 5126,
      "count": 609,
      "max": [
        0.6991853713989258,
        0.7149193286895752,
        -0.6992068886756897
      ],
      "min": [
        -0.6991853713989258,
        -0.6226458549499512,
        -1.0
      ],
      "type": "VEC3"
    },
    {
      "bufferView": 1,
      "byteOffset": 47624,
      "componentType": 5126,
      "count": 609,
      "max": [
        1.0,
        1.0
      ],
      "min": [
        0.0,
        0.0
      ],
      "type": "VEC2"
    },
    {
      "bufferView": 0,
      "byteOffset": 35424,
      "componentType": 5125,
      "count": 1074,
      "type": "SCALAR"
    },
    {
      "bufferView": 2,
      "byteOffset": 157488,
      "componentType": 5126,
      "count": 792,
      "max": [
        17.92289924621582,
        10.200799942016602,
        9.248129844665527
      ],
      "min": [
        8.758410453796387,
        -13.645700454711914,
        0.6557030081748962
      ],
      "type": "VEC3"
    },
    {
      "bufferView": 2,
      "byteOffset": 166992,
      "componentType": 5126,
      "count": 792,
      "max": [
        -0.6209509372711182,
        0.22814114391803741,
        0.695962131023407
      ],
      "min": [
        -1.0,
        -0.7031455039978027,
        -0.6777539253234863
      ],
      "type": "VEC3"
    },
    {
      "bufferView": 1,
      "byteOffset": 52496,
      "componentType": 5126,
      "count": 792,
      "max": [
        0.9777539968490601,
        0.999646008014679
      ],
      "min": [
        0.00443754019215703,
        0.007356049958616495
      ],
      "type": "VEC2"
    },
    {
      "bufferView": 0,
      "byteOffset": 39720,
      "componentType": 5125,
      "count": 1020,
      "type": "SCALAR"
    },
    {
      "bufferView": 2,
      "byteOffset": 176496,
      "componentType": 5126,
      "count": 426,
      "max": [
        18.36210060119629,
        6.372419834136963,
        3.6214399337768555
      ],
      "min": [
        9.321160316467285,
        -9.641850471496582,
        0.0001991989993257448
      ],
      "type": "VEC3"
    },
    {
      "bufferView": 2,
      "byteOffset": 181608,
      "componentType": 5126,
      "count": 426,
      "max": [
        1.0,
        1.0,
        1.0
      ],
      "min": [
        -1.0,
        -1.0,
        -1.0
      ],
      "type": "VEC3"
    },
    {
      "bufferView": 1,
      "byteOffset": 58832,
      "componentType": 5126,
      "count": 426,
      "max": [
        1.6069999933242798,
        1.461840033531189
      ],
      "min": [
        -0.9961720108985901,
        -1.20864999294281
      ],
      "type": "VEC2"
    },
    {
      "bufferView": 0,
      "byteOffset": 43800,
      "componentType": 5125,
      "count": 1152,
      "type": "SCALAR"
    },
    {
      "bufferView": 2,
      "byteOffset": 186720,
      "componentType": 5126,
      "count": 100,
      "max": [
        18.382099151611328,
        6.372419834136963,
        3.6214399337768555
      ],
      "min": [
        9.301159858703613,
        -9.641850471496582,
        0.0001991989993257448
      ],
      "type": "VEC3"
    },
    {
      "bufferView": 2,
      "byteOffset": 187920,
      "componentType": 5126,
      "count": 100,
      "max": [
        1.0,
        -0.0,
        0.0
      ],
      "min": [
        -1.0,
        -0.0,
        0.0
      ],
      "type": "VEC3"
    },
    {
      "bufferView": 1,
      "byteOffset": 62240,
      "componentType": 5126,
      "count": 100,
      "max": [
        1.0,
        1.0
      ],
      "min": [
        0.0,
        0.0
      ],
      "type": "VEC2"
    },
    {
      "bufferView": 0,
      "byteOffset": 48408,
      "componentType": 5125,
      "count": 288,
      "type": "SCALAR"
    },
    {
      "bufferView": 2,
      "byteOffset": 189120,
      "componentType": 5126,
      "count": 90,
      "max": [
        16.75160026550293,
        6.530930042266846,
        3.761359930038452
      ],
      "min": [
        10.951600074768066,
        -9.790109634399414,
        0.6216359734535217
      ],
      "type": "VEC3"
    },
    {
      "bufferView": 2,
      "byteOffset": 190200,
      "componentType": 5126,
      "count": 90,
      "max": [
        1.0,
        1.0,
        1.0
      ],
      "min": [
        -1.0,
        -1.0,
        -1.0
      ],
      "type": "VEC3"
    },
    {
      "bufferView": 1,
      "byteOffset": 63040,
      "componentType": 5126,
      "count": 90,
      "max": [
        14.79170036315918,
        5.843699932098389
      ],
      "min": [
        -5.674769878387451,
        -2.503269910812378
      ],
      "type": "VEC2"
    },
    {
      "bufferView": 0,
      "byteOffset": 49560,
      "componentType": 5125,
      "count": 132,
      "type": "SCALAR"
    }
  ],
  "asset": {
    "extras": {
      "author": "zairiqzairiq (https://sketchfab.com/zairiqzairiq)",
      "license": "CC-BY-4.0 (http://creativecommons.org/licenses/by/4.0/)",
      "source": "https://sketchfab.com/3d-models/the-king-strip-weathers-a8ca7bd1a9ee416881fa1480e70cacf3",
      "title": "The King strip weathers"
    },
    "generator": "Sketchfab-12.65.0",
    "version": "2.0"
  },
  "bufferViews": [
    {
      "buffer": 0,
      "byteLength": 50088,
      "name": "floatBufferViews",
      "target": 34963
    },
    {
      "buffer": 0,
      "byteLength": 63760,
      "byteOffset": 50088,
      "byteStride": 8,
      "name": "floatBufferViews",
      "target": 34962
    },
    {
      "buffer": 0,
      "byteLength": 191280,
      "byteOffset": 113848,
      "byteStride": 12,
      "name": "floatBufferViews",
      "target": 34962
    }
  ],
  "buffers": [
    {
      "byteLength": 305128,
      "uri": "scene.bin"
    }
  ],
  "images": [
    {
      "uri": "textures/Meshpart2Mtl_baseColor.png"
    },
    {
      "uri": "textures/Meshpart3Mtl_baseColor.png"
    },
    {
      "uri": "textures/Meshpart4Mtl_baseColor.png"
    },
    {
      "uri": "textures/Meshpart5Mtl_baseColor.png"
    },
    {
      "uri": "textures/Meshpart6Mtl_baseColor.png"
    },
    {
      "uri": "textures/Meshpart7Mtl_baseColor.png"
    },
    {
      "uri": "textures/Part5Mtl_baseColor.png"
    }
  ],
  "materials": [
    {
      "doubleSided": true,
      "name": "Meshpart1Mtl",
      "pbrMetallicRoughness": {
        "metallicFactor": 0.0,
        "roughnessFactor": 0.6
      }
    },
    {
      "doubleSided": true,
      "name": "Meshpart2Mtl",
      "pbrMetallicRoughness": {
        "baseColorTexture": {
          "index": 0
        },
        "metallicFactor": 0.0,
        "roughnessFactor": 0.6
      }
    },
    {
      "doubleSided": true,
      "name": "Meshpart3Mtl",
      "pbrMetallicRoughness": {
        "baseColorTexture": {
          "index": 1
        },
        "metallicFactor": 0.0,
        "roughnessFactor": 0.6
      }
    },
    {
      "doubleSided": true,
      "name": "Meshpart4Mtl",
      "pbrMetallicRoughness": {
        "baseColorTexture": {
          "index": 2
        },
        "metallicFactor": 0.0,
        "roughnessFactor": 0.6
      }
    },
    {
      "doubleSided": true,
      "name": "Meshpart5Mtl",
      "pbrMetallicRoughness": {
        "baseColorTexture": {
          "index": 3
        },
        "metallicFactor": 0.0,
        "roughnessFactor": 0.6
      }
    },
    {
      "doubleSided": true,
      "name": "Meshpart6Mtl",
      "pbrMetallicRoughness": {
        "baseColorTexture": {
          "index": 4
        },
        "metallicFactor": 0.0,
        "roughnessFactor": 0.6
      }
    },
    {
      "doubleSided": true,
      "name": "Meshpart7Mtl",
      "pbrMetallicRoughness": {
        "baseColorTexture": {
          "index": 5
        },
        "metallicFactor": 0.0,
        "roughnessFactor": 0.6
      }
    },
    {
      "doubleSided": true,
      "name": "Part4Mtl",
      "pbrMetallicRoughness": {
        "baseColorFactor": [
          0.0,
          0.0,
          0.0,
          1.0
        ],
        "metallicFactor": 0.0,
        "roughnessFactor": 0.6
      }
    },
    {
      "doubleSided": true,
      "name": "Part5Mtl",
      "pbrMetallicRoughness": {
        "baseColorTexture": {
          "index": 6
        },
        "metallicFactor": 0.0,
        "roughnessFactor": 0.6
      }
    },
    {
      "doubleSided": true,
      "name": "Wedge1Mtl",
      "pbrMetallicRoughness": {
        "metallicFactor": 0.0,
        "roughnessFactor": 0.6
      }
    }
  ],
  "meshes": [
    {
      "name": "Object_0",
      "primitives": [
        {
          "attributes": {
            "NORMAL": 1,
            "POSITION": 0,
            "TEXCOORD_0": 2
          },
          "indices": 3,
          "material": 0,
          "mode": 4
        }
      ]
    },
    {
      "name": "Object_1",
      "primitives": [
        {
          "attributes": {
            "NORMAL": 5,
            "POSITION": 4,
            "TEXCOORD_0": 6
          },
          "indices": 7,
          "material": 6,
          "mode": 4
        }
      ]
    },
    {
      "name": "Object_2",
      "primitives": [
        {
          "attributes": {
            "NORMAL": 9,
            "POSITION": 8,
            "TEXCOORD_0": 10
          },
          "indices": 11,
          "material": 4,
          "mode": 4
        }
      ]
    },
    {
      "name": "Object_3",
      "primitives": [
        {
          "attributes": {
            "NORMAL": 13,
            "POSITION": 12,
            "TEXCOORD_0": 14
          },
          "indices": 15,
          "material": 1,
          "mode": 4
        }
      ]
    },
    {
      "name": "Object_4",
      "primitives": [
        {
          "attributes": {
            "NORMAL": 17,
            "POSITION": 16,
            "TEXCOORD_0": 18
          },
          "indices": 19,
          "material": 2,
          "mode": 4
        }
      ]
    },
    {
      "name": "Object_5",
      "primitives": [
        {
          "attributes": {
            "NORMAL": 21,
            "POSITION": 20,
            "TEXCOORD_0": 22
          },
          "indices": 23,
          "material": 3,
          "mode": 4
        }
      ]
    },
    {
      "name": "Object_6",
      "primitives": [
        {
          "attributes": {
            "NORMAL": 25,
            "POSITION": 24,
            "TEXCOORD_0": 26
          },
          "indices": 27,
          "material": 5,
          "mode": 4
        }
      ]
    },
    {
      "name": "Object_7",
      "primitives": [
        {
          "attributes": {
            "NORMAL": 29,
            "POSITION": 28,
            "TEXCOORD_0": 30
          },
          "indices": 31,
          "material": 7,
          "mode": 4
        }
      ]
    },
    {
      "name": "Object_8",
      "primitives": [
        {
          "attributes": {
            "NORMAL": 33,
            "POSITION": 32,
            "TEXCOORD_0": 34
          },
          "indices": 35,
          "material": 8,
          "mode": 4
        }
      ]
    },
    {
      "name": "Object_9",
      "primitives": [
        {
          "attributes": {
            "NORMAL": 37,
            "POSITION": 36,
            "TEXCOORD_0": 38
          },
          "indices": 39,
          "material": 9,
          "mode": 4
        }
      ]
    }
  ],
  "nodes": [
    {
      "children": [
        1
      ],
      "matrix": [
        1.0,
        0.0,
        0.0,
        0.0,
        0.0,
        2.220446049250313e-16,
        -1.0,
        0.0,
        0.0,
        1.0,
        2.220446049250313e-16,
        0.0,
        0.0,
        0.0,
        0.0,
        1.0
      ],
      "name": "Sketchfab_model"
    },
    {
      "children": [
        2,
        3,
        4,
        5,
        6,
        7,
        8,
        9,
        10,
        11
      ],
      "name": "the king.obj.cleaner.materialmerger.gles"
    },
    {
      "mesh": 0,
      "name": "Object_2"
    },
    {
      "mesh": 1,
      "name": "Object_3"
    },
    {
      "mesh": 2,
      "name": "Object_4"
    },
    {
      "mesh": 3,
      "name": "Object_5"
    },
    {
      "mesh": 4,
      "name": "Object_6"
    },
    {
      "mesh": 5,
      "name": "Object_7"
    },
    {
      "mesh": 6,
      "name": "Object_8"
    },
    {
      "mesh": 7,
      "name": "Object_9"
    },
    {
      "mesh": 8,
      "name": "Object_10"
    },
    {
      "mesh": 9,
      "name": "Object_11"
    }
  ],
  "samplers": [
    {
      "magFilter": 9729,
      "minFilter": 9987,
      "wrapS": 10497,
      "wrapT": 10497
    }
  ],
  "scene": 0,
  "scenes": [
    {
      "name": "Sketchfab_Scene",
      "nodes": [
        0
      ]
    }
  ],
  "textures": [
    {
      "sampler": 0,
      "source": 0
    },
    {
      "sampler": 0,
      "source": 1
    },
    {
      "sampler": 0,
      "source": 2
    },
    {
      "sampler": 0,
      "source": 3
    },
    {
      "sampler": 0,
      "source": 4
    },
    {
      "sampler": 0,
      "source": 5
    },
    {
      "sampler": 0,
      "source": 6
    }
  ]
}
